<?xml version="1.0" encoding="utf-8"?>
<!-- Generator: Adobe Illustrator 16.0.0, SVG Export Plug-In . SVG Version: 6.00 Build 0)  -->
<!DOCTYPE svg PUBLIC "-//W3C//DTD SVG 1.1//EN" "http://www.w3.org/Graphics/SVG/1.1/DTD/svg11.dtd">
<svg version="1.1" id="Layer_1" xmlns="http://www.w3.org/2000/svg" xmlns:xlink="http://www.w3.org/1999/xlink" x="0px" y="0px"
	 width="800px" height="600px" viewBox="0 0 800 600" enable-background="new 0 0 800 600" xml:space="preserve">
<g>
	<defs>
		<rect id="SVGID_1_" width="800" height="600"/>
	</defs>
	<clipPath id="SVGID_2_">
		<use xlink:href="#SVGID_1_"  overflow="visible"/>
	</clipPath>
	<g opacity="0" clip-path="url(#SVGID_2_)">
		<g>
			<defs>
				<rect id="SVGID_3_" width="800" height="600"/>
			</defs>
			<clipPath id="SVGID_4_">
				<use xlink:href="#SVGID_3_"  overflow="visible"/>
			</clipPath>
		</g>
	</g>
	<path clip-path="url(#SVGID_2_)" fill="#4E4F53" d="M135.156,96.177c0,0-14.831-9.3-9.228-16.699
		c0.309-0.408,35.788-8.684,47.589,16.851c6.701,14.5-2.989,30.077-5.124,31.034c-2.13,0.96-2.58,1.06-2.58,1.06
		s10.971-20.432-9.392-30.766C146.845,92.794,135.156,96.177,135.156,96.177"/>
	<path clip-path="url(#SVGID_2_)" fill="#4E4F53" d="M167.504,92.924c-2.465-4.934-0.46-10.932,4.472-13.396
		c4.934-2.464,10.934-0.458,13.397,4.473c2.465,4.934,0.462,10.932-4.473,13.397C175.966,99.861,169.969,97.859,167.504,92.924"/>
	<path clip-path="url(#SVGID_2_)" fill="#8C191C" d="M146.163,114.693c0,0,9.299-14.833,16.698-9.228
		c0.409,0.309,8.686,35.787-16.853,47.589c-14.499,6.7-30.075-2.991-31.034-5.124c-0.958-2.13-1.059-2.58-1.059-2.58
		s20.429,10.972,30.766-9.392C149.543,126.381,146.163,114.693,146.163,114.693"/>
	<path clip-path="url(#SVGID_2_)" fill="#8C191C" d="M149.415,147.041c4.933-2.464,10.931-0.461,13.395,4.473
		c2.464,4.933,0.46,10.932-4.472,13.394c-4.936,2.467-10.934,0.464-13.397-4.471C142.477,155.503,144.479,149.506,149.415,147.041"
		/>
	<path clip-path="url(#SVGID_2_)" fill="#4E4F53" d="M127.645,125.698c0,0,14.831,9.301,9.229,16.699
		c-0.31,0.408-35.788,8.685-47.59-16.853c-6.699-14.499,2.989-30.075,5.124-31.035c2.131-0.956,2.58-1.058,2.58-1.058
		s-10.972,20.429,9.392,30.767C115.957,129.083,127.645,125.698,127.645,125.698"/>
	<path clip-path="url(#SVGID_2_)" fill="#4E4F53" d="M95.295,128.952c2.467,4.933,0.462,10.933-4.473,13.396
		c-4.932,2.464-10.933,0.458-13.396-4.473c-2.464-4.936-0.46-10.934,4.474-13.397C86.834,122.013,92.833,124.016,95.295,128.952"/>
	<path clip-path="url(#SVGID_2_)" fill="#8C191C" d="M116.638,107.183c0,0-9.3,14.83-16.698,9.229
		c-0.409-0.312-8.684-35.788,16.853-47.591c14.499-6.699,30.075,2.99,31.034,5.124c0.958,2.13,1.06,2.578,1.06,2.578
		s-20.43-10.969-30.768,9.395C113.257,95.495,116.638,107.183,116.638,107.183"/>
	<path clip-path="url(#SVGID_2_)" fill="#8C191C" d="M113.386,74.833c-4.932,2.467-10.931,0.463-13.395-4.471
		c-2.463-4.935-0.46-10.934,4.472-13.398c4.936-2.464,10.934-0.46,13.397,4.474C120.323,66.373,118.322,72.37,113.386,74.833"/>
</g>
<text transform="matrix(1 0 0 1 194.4277 142.9634)" fill="#8C191C" font-family="'Roboto-Bold'" font-size="90">CHOIR</text>
<g>
	<defs>
		<rect id="SVGID_5_" width="800" height="600"/>
	</defs>
	<clipPath id="SVGID_6_">
		<use xlink:href="#SVGID_5_"  overflow="visible"/>
	</clipPath>
	<line clip-path="url(#SVGID_6_)" fill="#8C191C" x1="471.134" y1="65.899" x2="471.134" y2="155.976"/>
	
		<line clip-path="url(#SVGID_6_)" fill="none" stroke="#8C191C" stroke-width="2" stroke-miterlimit="10" x1="490.134" y1="65.899" x2="490.134" y2="155.976"/>
</g>
<text transform="matrix(1 0 0 1 510.2334 93.9155)"><tspan x="0" y="0" fill="#4E4F53" font-family="Roboto-Light" font-size="20">Collaborati</tspan><tspan x="91.498" y="0" fill="#4E4F53" font-family="Roboto-Light" font-size="20">v</tspan><tspan x="100.979" y="0" fill="#4E4F53" font-family="Roboto-Light" font-size="20">e</tspan></text>
<text transform="matrix(1 0 0 1 510.2334 117.9155)" fill="#4E4F53" font-family="Roboto-Light" font-size="20">Health Outcomes</text>
<text transform="matrix(1 0 0 1 510.2334 141.9155)"><tspan x="0" y="0" fill="#4E4F53" font-family="Roboto-Light" font-size="20">Information Regist</tspan><tspan x="154.358" y="0" fill="#4E4F53" font-family="Roboto-Light" font-size="20">r</tspan><tspan x="161.038" y="0" fill="#4E4F53" font-family="Roboto-Light" font-size="20">y</tspan></text>
</svg>

